<?xml version="1.0"?>
<svg xmlns="http://www.w3.org/2000/svg" xmlns:xlink="http://www.w3.org/1999/xlink" version="1.1" id="Capa_1" x="0px" y="0px" viewBox="0 0 512 512" style="enable-background:new 0 0 512 512;" xml:space="preserve" width="512px" height="512px"><g><g>
	<g>
		<path d="M197.953,195.576h-67.44c-5.523,0-10,4.478-10,10v59.591c0,5.522,4.477,10,10,10h67.44c5.523,0,10-4.478,10-10v-59.591    C207.953,200.053,203.476,195.576,197.953,195.576z M187.953,255.167h-47.44v-39.591h47.44V255.167z" data-original="#000000" class="active-path" data-old_color="#000000" fill="#1273EB"/>
	</g>
</g><g>
	<g>
		<path d="M311.839,195.576h-67.44c-5.523,0-10,4.478-10,10v59.591c0,5.522,4.477,10,10,10h67.44c5.522,0,10-4.478,10-10v-59.591    C321.839,200.054,317.362,195.576,311.839,195.576z M301.839,255.167h-47.44v-39.591h47.44V255.167z" data-original="#000000" class="active-path" data-old_color="#000000" fill="#1273EB"/>
	</g>
</g><g>
	<g>
		<path d="M321.649,307.88c-0.13-0.639-0.32-1.27-0.57-1.88c-0.25-0.601-0.56-1.181-0.92-1.72c-0.36-0.551-0.78-1.061-1.24-1.52    c-0.46-0.46-0.97-0.88-1.52-1.25c-0.54-0.36-1.12-0.67-1.73-0.92c-0.6-0.25-1.23-0.44-1.87-0.57c-1.29-0.26-2.62-0.25-3.91,0    c-0.63,0.13-1.26,0.32-1.87,0.57c-0.6,0.25-1.18,0.56-1.72,0.92c-0.55,0.37-1.06,0.79-1.52,1.25c-0.46,0.46-0.88,0.97-1.25,1.52    c-0.36,0.539-0.67,1.119-0.92,1.72c-0.25,0.609-0.44,1.24-0.57,1.88s-0.19,1.3-0.19,1.95c0,0.649,0.06,1.31,0.19,1.95    s0.32,1.27,0.57,1.869c0.25,0.61,0.56,1.19,0.92,1.73c0.37,0.55,0.79,1.06,1.25,1.52c0.46,0.46,0.97,0.881,1.52,1.24    c0.54,0.36,1.12,0.67,1.72,0.92c0.61,0.25,1.24,0.44,1.87,0.57c0.65,0.13,1.31,0.2,1.96,0.2c0.65,0,1.31-0.07,1.95-0.2    s1.27-0.32,1.87-0.57c0.61-0.25,1.19-0.56,1.73-0.92c0.55-0.359,1.06-0.78,1.52-1.24c0.46-0.46,0.88-0.97,1.24-1.52    c0.36-0.54,0.67-1.12,0.92-1.73c0.25-0.6,0.44-1.229,0.57-1.869c0.13-0.641,0.2-1.301,0.2-1.95    C321.849,309.18,321.779,308.519,321.649,307.88z" data-original="#000000" class="active-path" data-old_color="#000000" fill="#1273EB"/>
	</g>
</g><g>
	<g>
		<path d="M482.224,159.814h-68.87c-5.523,0-10,4.478-10,10v0.696L228.09,2.776c-3.866-3.701-9.962-3.701-13.828,0L22.86,185.955    c-1.99,1.904-3.106,4.544-3.085,7.298c0.02,2.753,1.174,5.377,3.191,7.251l33.689,31.314c3.891,3.617,9.928,3.561,13.75-0.127    l8.159-7.87v127.887h-29c-5.523,0-10,4.478-10,10v76.959c0,5.522,4.477,10,10,10h23.213c-3.861,6.317-6.09,13.736-6.09,21.666    c0,22.976,18.691,41.667,41.667,41.667c22.976,0,41.667-18.691,41.667-41.667c0-7.93-2.229-15.349-6.09-21.666h163.847    c-3.861,6.317-6.09,13.736-6.09,21.666c0,22.976,18.691,41.667,41.667,41.667c22.976,0,41.667-18.691,41.667-41.667    c0-7.93-2.229-15.349-6.09-21.666h34.423c5.523,0,10-4.478,10-10v-3.347v-73.612V179.814h58.87c5.523,0,10-4.478,10-10    C492.224,164.292,487.747,159.814,482.224,159.814z M63.336,210.722l-18.988-17.649l176.828-169.23l176.828,169.23l-18.988,17.649    L228.118,65.169c-0.242-0.234-0.493-0.452-0.752-0.657c-1.811-1.43-4.001-2.146-6.191-2.146s-4.38,0.715-6.191,2.146    c-0.259,0.204-0.51,0.423-0.752,0.657L63.336,210.722z M271.759,299.83H98.565v-95.299L221.176,86.26l122.611,118.27v147.179    H98.565V319.83h173.194c5.523,0,10-4.477,10-10C281.759,304.308,277.282,299.83,271.759,299.83z M108.354,492    c-11.947,0-21.667-9.72-21.667-21.667c0-11.946,9.72-21.666,21.667-21.666c11.947,0.001,21.667,9.72,21.667,21.666    C130.021,482.28,120.301,492,108.354,492z M343.354,492c-11.947,0-21.667-9.72-21.667-21.667c0-11.946,9.72-21.666,21.667-21.666    c11.947,0.001,21.667,9.72,21.667,21.666C365.021,482.28,355.301,492,343.354,492z M403.355,393.945H132.861    c-5.523,0-10,4.478-10,10c0,5.522,4.477,10,10,10h270.493v14.722H59.565v-56.959h343.79V393.945z M403.355,351.708    L403.355,351.708h-39.568V223.821l8.159,7.87c1.935,1.867,4.438,2.803,6.943,2.803c2.442,0,4.887-0.891,6.808-2.676l17.658-16.413    V351.708z" data-original="#000000" class="active-path" data-old_color="#000000" fill="#1273EB"/>
	</g>
</g><g>
	<g>
		<path d="M109.669,401.991c-0.13-0.641-0.32-1.27-0.57-1.87c-0.25-0.601-0.56-1.181-0.92-1.73c-0.37-0.54-0.78-1.06-1.24-1.52    c-0.47-0.46-0.98-0.88-1.53-1.24c-0.54-0.36-1.12-0.67-1.72-0.92c-0.61-0.25-1.24-0.441-1.87-0.57c-1.29-0.26-2.62-0.26-3.91,0    c-0.64,0.13-1.27,0.32-1.87,0.57c-0.61,0.25-1.19,0.559-1.73,0.92c-0.55,0.36-1.06,0.78-1.52,1.24    c-0.46,0.46-0.88,0.979-1.24,1.52c-0.36,0.55-0.67,1.13-0.92,1.73c-0.25,0.6-0.44,1.229-0.57,1.87c-0.13,0.649-0.2,1.3-0.2,1.96    c0,0.649,0.07,1.3,0.2,1.949c0.13,0.641,0.32,1.271,0.57,1.87c0.25,0.601,0.56,1.181,0.92,1.73c0.36,0.54,0.78,1.06,1.24,1.52    c0.46,0.46,0.97,0.88,1.52,1.24c0.539,0.36,1.12,0.67,1.73,0.92c0.6,0.25,1.23,0.44,1.87,0.57c0.64,0.13,1.3,0.19,1.95,0.19    c0.65,0,1.31-0.06,1.96-0.19c0.63-0.13,1.26-0.32,1.87-0.57c0.6-0.25,1.18-0.56,1.72-0.92c0.55-0.36,1.06-0.78,1.52-1.24    c0.46-0.46,0.88-0.979,1.25-1.52c0.36-0.55,0.67-1.13,0.92-1.73c0.25-0.6,0.44-1.23,0.57-1.87c0.13-0.649,0.19-1.3,0.19-1.949    C109.859,403.291,109.799,402.64,109.669,401.991z" data-original="#000000" class="active-path" data-old_color="#000000" fill="#1273EB"/>
	</g>
</g></g> </svg>
